<mxfile host="app.diagrams.net" modified="2023-01-11T09:26:36.363Z" agent="5.0 (X11; Linux x86_64) AppleWebKit/537.36 (KHTML, like Gecko) Chrome/108.0.0.0 Safari/537.36" version="20.8.3" etag="vqSIdQDPFn3Zx0sZ-Rbt" type="github">
  <diagram id="aNyIWDIpPMm0Ga3-Y0mU" name="Page-1">
    <mxGraphModel dx="834" dy="495" grid="1" gridSize="10" guides="1" tooltips="1" connect="1" arrows="1" fold="1" page="1" pageScale="1" pageWidth="850" pageHeight="1100" math="0" shadow="0">
      <root>
        <mxCell id="0" />
        <mxCell id="1" parent="0" />
        <mxCell id="pRpNa2XizsHZGtq-N6IV-1" value="2009 : Julia Project Initiated" style="rounded=0;whiteSpace=wrap;html=1;" vertex="1" parent="1">
          <mxGeometry x="170" y="90" width="120" height="60" as="geometry" />
        </mxCell>
      </root>
    </mxGraphModel>
  </diagram>
</mxfile>
